<?xml version="1.0" encoding="UTF-8"?>
<svg id="Layer_1" data-name="Layer 1" xmlns="http://www.w3.org/2000/svg" viewBox="0 0 8.32 7.65">
  <defs>
    <style>
      .cls-1 {
        fill: #fcc34b;
      }

      .cls-2 {
        fill: #132b46;
      }
    </style>
  </defs>
  <g>
    <path class="cls-2" d="M1.32,0h5.45c.86,0,1.55.7,1.55,1.55v3.29c0,.8-.65,1.44-1.44,1.44H1.31c-.72,0-1.31-.58-1.31-1.31V1.32C0,.59.59,0,1.32,0Z"/>
    <path class="cls-2" d="M3.54,6.24l-1.34,1.34s-.11.07-.17.07h-.18c-.13,0-.24-.11-.24-.24v-1.16.07c-.01-.06-.21-.07-.21-.07"/>
  </g>
  <path class="cls-1" d="M4,5.65s-.61-.79-2.3-.85c0,0-.19-.02-.19-.16V1.3s.03-.15.18-.13c0,0,1.92.07,2.32.89,0,0,.16.15.24,0,0,0,.44-.85,2.38-.89,0,0,.09.04.09.11v3.35s-.04.17-.17.17-1.63.05-2.34.88c-.03.03-.07.06-.11.06-.03,0-.05,0-.06-.02"/>
  <path class="cls-2" d="M3.66,2.42l.17.23s.02.08-.02.1c-.16.12-.59.45-.44.7,0,0,.44-.04.5.42,0,0,.07.87-.82.63,0,0-.62-.06-.22-1.37,0,0,.13-.44.69-.74.05-.03.11-.01.14.03Z"/>
  <path class="cls-2" d="M5.22,2.44l.17.23s.02.08-.02.1c-.16.12-.59.45-.44.7,0,0,.44-.04.5.42,0,0,.07.87-.82.63,0,0-.62-.06-.22-1.37,0,0,.13-.44.69-.74.05-.03.11-.01.14.03Z"/>
</svg>